<?xml version="1.0" encoding="UTF-8"?>
<svg width="80px" height="80px" viewBox="0 0 80 80" version="1.1" xmlns="http://www.w3.org/2000/svg" xmlns:xlink="http://www.w3.org/1999/xlink">
    <title>FIL</title>
    <g id="币种icon" stroke="none" stroke-width="1" fill="none" fill-rule="evenodd">
        <g id="80" transform="translate(-900.000000, -180.000000)">
            <g id="bsc" transform="translate(0.000000, 180.000000)">
                <g id="FIL" transform="translate(900.000000, 0.000000)">
                    <rect id="矩形备份-3" fill="#45C1D0" x="0" y="0" width="80" height="80"></rect>
                    <g id="编组-6">
                        <circle id="椭圆形备份-3" fill="#45C1D0" cx="40" cy="40" r="40"></circle>
                        <path d="M40,5.9375 C58.8121993,5.9375 74.0625,21.1878007 74.0625,40 C74.0625,58.8121993 58.8121993,74.0625 40,74.0625 C21.1878007,74.0625 5.9375,58.8121993 5.9375,40 C5.9375,21.1878007 21.1878007,5.9375 40,5.9375 Z M40,6.875 C21.7055677,6.875 6.875,21.7055677 6.875,40 C6.875,58.2944323 21.7055677,73.125 40,73.125 C58.2944323,73.125 73.125,58.2944323 73.125,40 C73.125,21.7055677 58.2944323,6.875 40,6.875 Z" id="椭圆形备份-4" fill="#FFFFFF" fill-rule="nonzero" opacity="0.900000036"></path>
                        <path d="M53.223372,18.9499202 C54.6979266,19.5289805 55.2932625,20.5983546 55.0093798,22.1580423 C54.3347578,22.7614969 53.6115697,22.8451107 52.8398154,22.4088838 C51.9242595,21.8913744 51.5585688,20.3307821 50.6025165,19.8185107 C48.5411308,18.7139802 46.3037726,22.8554314 45.4751645,24.8653093 C44.9375827,26.1692715 44.0957772,29.1076646 42.949748,33.6804886 L51.484375,34.9017452 L51.3144298,37.421875 L42.4762806,36.189238 C42.1080289,37.9092888 41.7551144,39.5229083 41.4175372,41.0300966 L50.46875,42.3236202 L50.2988048,44.84375 L40.8504508,43.5243357 C39.2219331,50.5730502 37.9907846,54.8642563 37.1570053,56.397954 C36.0160009,58.4967778 34.4882702,60.0473765 32.5738132,61.04975 C30.1860739,61.62925 28.254248,61.62925 26.7783358,61.04975 C25.3024235,60.4702501 24.7065394,59.4000642 24.9906835,57.8391923 C25.6659266,57.2352795 26.3897806,57.1516022 27.1622455,57.5881603 C28.0786444,58.1060626 28.4446718,59.6678398 29.4016044,60.1805001 C31.4648881,61.2858692 33.7043063,57.1412737 34.5336774,55.1298699 C34.9442644,54.1341078 35.902838,50.1058724 37.409398,43.0451638 L29.140625,41.8890464 L29.3105702,39.296875 L37.9417906,40.5322023 C38.2572709,39.0333337 38.5932648,37.4209458 38.9497724,35.6950386 L30.15625,34.4671714 L30.3261952,31.875 L39.4542258,33.1801542 C40.650896,28.7607314 41.7842373,25.5667424 42.8542498,23.5981872 C43.9942045,21.5009557 45.5205298,19.9515334 47.4332258,18.9499202 C49.8187687,18.3708599 51.7488174,18.3708599 53.223372,18.9499202 Z" id="形状结合" fill="#FFFFFF"></path>
                    </g>
                </g>
            </g>
        </g>
    </g>
</svg>