<?xml version="1.0" encoding="UTF-8"?>
<svg width="544px" height="128px" viewBox="0 0 544 128" version="1.1" xmlns="http://www.w3.org/2000/svg" xmlns:xlink="http://www.w3.org/1999/xlink">
    <!-- Generator: Sketch 55 (78076) - https://sketchapp.com -->
    <title>MathWallet_Logo_Horizontal_Black</title>
    <desc>Created with Sketch.</desc>
    <g id="Page-1" stroke="none" stroke-width="1" fill="none" fill-rule="evenodd">
        <g id="A3" transform="translate(-128.000000, -334.000000)">
            <g id="MathWallet_Logo_Horizontal" transform="translate(128.000000, 334.000000)">
                <rect id="Rectangle" fill="#FFFFFF" opacity="0" x="0" y="0" width="544" height="128"></rect>
                <path d="M171,84.84 L171,44.24 L178.598,44.24 L190.952,63.438 L203.306,44.24 L210.904,44.24 L210.904,84.84 L203.77,84.84 L203.77,55.724 L190.952,74.864 L190.72,74.864 L178.018,55.84 L178.018,84.84 L171,84.84 Z M229.248,85.478 C223.506,85.478 218.402,82.172 218.402,76.024 L218.402,75.908 C218.402,69.296 223.564,66.048 231.046,66.048 C234.468,66.048 236.904,66.57 239.282,67.324 L239.282,66.57 C239.282,62.22 236.614,59.9 231.684,59.9 C228.262,59.9 225.71,60.654 222.926,61.814 L221.07,56.304 C224.434,54.796 227.74,53.81 232.612,53.81 C237.194,53.81 240.616,55.028 242.762,57.232 C245.024,59.436 246.068,62.684 246.068,66.686 L246.068,84.84 L239.224,84.84 L239.224,81.012 C237.136,83.506 233.946,85.478 229.248,85.478 Z M231.22,80.374 C235.86,80.374 239.398,77.706 239.398,73.82 L239.398,71.732 C237.6,71.036 235.222,70.514 232.438,70.514 C227.914,70.514 225.246,72.428 225.246,75.618 L225.246,75.734 C225.246,78.692 227.856,80.374 231.22,80.374 Z M264.354,85.362 C259.192,85.362 255.538,83.1 255.538,76.372 L255.538,60.248 L251.652,60.248 L251.652,54.216 L255.538,54.216 L255.538,45.806 L262.556,45.806 L262.556,54.216 L270.792,54.216 L270.792,60.248 L262.556,60.248 L262.556,75.27 C262.556,77.996 263.948,79.098 266.326,79.098 C267.892,79.098 269.284,78.75 270.676,78.054 L270.676,83.796 C268.936,84.782 267.022,85.362 264.354,85.362 Z M277.826,84.84 L277.826,42.5 L284.844,42.5 L284.844,58.914 C286.816,56.072 289.658,53.578 294.414,53.578 C301.316,53.578 305.318,58.218 305.318,65.294 L305.318,84.84 L298.3,84.84 L298.3,67.44 C298.3,62.684 295.922,59.958 291.746,59.958 C287.686,59.958 284.844,62.8 284.844,67.556 L284.844,84.84 L277.826,84.84 Z M342.818,85.13 L328.666,44.24 L336.38,44.24 L346.066,74.342 L356.042,44.124 L362.074,44.124 L372.05,74.342 L381.736,44.24 L389.218,44.24 L375.124,85.13 L368.918,85.13 L358.942,55.956 L348.966,85.13 L342.818,85.13 Z M400.37,85.478 C394.628,85.478 389.524,82.172 389.524,76.024 L389.524,75.908 C389.524,69.296 394.686,66.048 402.168,66.048 C405.59,66.048 408.026,66.57 410.404,67.324 L410.404,66.57 C410.404,62.22 407.736,59.9 402.806,59.9 C399.384,59.9 396.832,60.654 394.048,61.814 L392.192,56.304 C395.556,54.796 398.862,53.81 403.734,53.81 C408.316,53.81 411.738,55.028 413.884,57.232 C416.146,59.436 417.19,62.684 417.19,66.686 L417.19,84.84 L410.346,84.84 L410.346,81.012 C408.258,83.506 405.068,85.478 400.37,85.478 Z M402.342,80.374 C406.982,80.374 410.52,77.706 410.52,73.82 L410.52,71.732 C408.722,71.036 406.344,70.514 403.56,70.514 C399.036,70.514 396.368,72.428 396.368,75.618 L396.368,75.734 C396.368,78.692 398.978,80.374 402.342,80.374 Z M425.906,84.84 L425.906,42.5 L432.924,42.5 L432.924,84.84 L425.906,84.84 Z M442.394,84.84 L442.394,42.5 L449.412,42.5 L449.412,84.84 L442.394,84.84 Z M472.512,85.536 C463.638,85.536 456.794,79.098 456.794,69.644 L456.794,69.528 C456.794,60.77 463,53.578 471.758,53.578 C481.502,53.578 486.432,61.234 486.432,70.05 C486.432,70.688 486.374,71.326 486.316,72.022 L463.812,72.022 C464.566,77.01 468.104,79.794 472.628,79.794 C476.05,79.794 478.486,78.518 480.922,76.14 L485.04,79.794 C482.14,83.274 478.138,85.536 472.512,85.536 Z M463.754,67.382 L479.472,67.382 C479.008,62.858 476.34,59.32 471.7,59.32 C467.408,59.32 464.392,62.626 463.754,67.382 Z M503.674,85.362 C498.512,85.362 494.858,83.1 494.858,76.372 L494.858,60.248 L490.972,60.248 L490.972,54.216 L494.858,54.216 L494.858,45.806 L501.876,45.806 L501.876,54.216 L510.112,54.216 L510.112,60.248 L501.876,60.248 L501.876,75.27 C501.876,77.996 503.268,79.098 505.646,79.098 C507.212,79.098 508.604,78.75 509.996,78.054 L509.996,83.796 C508.256,84.782 506.342,85.362 503.674,85.362 Z M114.847009,57.7610023 C112.569972,55.483966 112.569972,51.7921607 114.847009,49.5151245 C117.124045,47.2380882 120.81585,47.2380882 123.092886,49.5151245 C125.369923,51.7921607 125.369923,55.483966 123.092886,57.7610023 C120.81585,60.0380385 117.124045,60.0380385 114.847009,57.7610023 Z M95.2630488,77.344962 C93.5552716,75.6371848 93.5552716,72.8683309 95.2630488,71.1605537 C96.970826,69.4527765 99.7396799,69.4527765 101.447457,71.1605537 C103.155234,72.8683309 103.155234,75.6371848 101.447457,77.344962 C99.7396799,79.0527392 96.970826,79.0527392 95.2630488,77.344962 Z M126.185091,67.0376148 C124.477313,65.3298376 124.477313,62.5609836 126.185091,60.8532064 C127.892868,59.1454292 130.661722,59.1454292 132.369499,60.8532064 C134.077276,62.5609836 134.077276,65.3298376 132.369499,67.0376148 C130.661722,68.745392 127.892868,68.745392 126.185091,67.0376148 Z M115.877743,77.344962 C114.169966,75.6371848 114.169966,72.8683309 115.877743,71.1605537 C117.58552,69.4527765 120.354374,69.4527765 122.062152,71.1605537 C123.769929,72.8683309 123.769929,75.6371848 122.062152,77.344962 C120.354374,79.0527392 117.58552,79.0527392 115.877743,77.344962 Z M137.523172,76.3142273 C136.384654,75.1757092 136.384654,73.3298065 137.523172,72.1912884 C138.661691,71.0527703 140.507593,71.0527703 141.646111,72.1912884 C142.78463,73.3298065 142.78463,75.1757092 141.646111,76.3142273 C140.507593,77.4527454 138.661691,77.4527454 137.523172,76.3142273 Z M127.215825,86.6215745 C126.077307,85.4830564 126.077307,83.6371538 127.215825,82.4986356 C128.354343,81.3601175 130.200246,81.3601175 131.338764,82.4986356 C132.477282,83.6371538 132.477282,85.4830564 131.338764,86.6215745 C130.200246,87.7600927 128.354343,87.7600927 127.215825,86.6215745 Z M104.539661,68.0683495 C102.262625,65.7913132 102.262625,62.099508 104.539661,59.8224717 C106.816698,57.5454354 110.508503,57.5454354 112.785539,59.8224717 C115.062575,62.099508 115.062575,65.7913132 112.785539,68.0683495 C110.508503,70.3453858 106.816698,70.3453858 104.539661,68.0683495 Z M104.539661,47.453655 C102.262625,45.1766187 102.262625,41.4848135 104.539661,39.2077772 C106.816698,36.9307409 110.508503,36.9307409 112.785539,39.2077772 C115.062575,41.4848135 115.062575,45.1766187 112.785539,47.453655 C110.508503,49.7306913 106.816698,49.7306913 104.539661,47.453655 Z M94.2323141,57.7610023 C91.9552778,55.483966 91.9552778,51.7921607 94.2323141,49.5151245 C96.5093503,47.2380882 100.201156,47.2380882 102.478192,49.5151245 C104.755228,51.7921607 104.755228,55.483966 102.478192,57.7610023 C100.201156,60.0380385 96.5093503,60.0380385 94.2323141,57.7610023 Z M73.5218081,57.7610023 C71.2447719,55.483966 71.2447719,51.7921607 73.5218081,49.5151245 C75.7988444,47.2380882 79.4906497,47.2380882 81.7676859,49.5151245 C84.0447222,51.7921607 84.0447222,55.483966 81.7676859,57.7610023 C79.4906497,60.0380385 75.7988444,60.0380385 73.5218081,57.7610023 Z M53.9378484,77.344962 C52.2300712,75.6371848 52.2300712,72.8683309 53.9378484,71.1605537 C55.6456256,69.4527765 58.4144795,69.4527765 60.1222567,71.1605537 C61.8300339,72.8683309 61.8300339,75.6371848 60.1222567,77.344962 C58.4144795,79.0527392 55.6456256,79.0527392 53.9378484,77.344962 Z M84.8598901,67.0376148 C83.1521129,65.3298376 83.1521129,62.5609836 84.8598901,60.8532064 C86.5676673,59.1454292 89.3365213,59.1454292 91.0442985,60.8532064 C92.7520757,62.5609836 92.7520757,65.3298376 91.0442985,67.0376148 C89.3365213,68.745392 86.5676673,68.745392 84.8598901,67.0376148 Z M74.5525429,77.344962 C72.8447657,75.6371848 72.8447657,72.8683309 74.5525429,71.1605537 C76.2603201,69.4527765 79.029174,69.4527765 80.7369512,71.1605537 C82.4447284,72.8683309 82.4447284,75.6371848 80.7369512,77.344962 C79.029174,79.0527392 76.2603201,79.0527392 74.5525429,77.344962 Z M34.3538886,76.3142273 C33.2153705,75.1757092 33.2153705,73.3298065 34.3538886,72.1912884 C35.4924067,71.0527703 37.3383094,71.0527703 38.4768275,72.1912884 C39.6153456,73.3298065 39.6153456,75.1757092 38.4768275,76.3142273 C37.3383094,77.4527454 35.4924067,77.4527454 34.3538886,76.3142273 Z M44.6612359,86.6215745 C43.5227177,85.4830564 43.5227177,83.6371538 44.6612359,82.4986356 C45.799754,81.3601175 47.6456566,81.3601175 48.7841747,82.4986356 C49.9226929,83.6371538 49.9226929,85.4830564 48.7841747,86.6215745 C47.6456566,87.7600927 45.799754,87.7600927 44.6612359,86.6215745 Z M85.8906248,86.6215745 C84.7521067,85.4830564 84.7521067,83.6371538 85.8906248,82.4986356 C87.029143,81.3601175 88.8750456,81.3601175 90.0135637,82.4986356 C91.1520819,83.6371538 91.1520819,85.4830564 90.0135637,86.6215745 C88.8750456,87.7600927 87.029143,87.7600927 85.8906248,86.6215745 Z M43.6305011,67.0376148 C41.9227239,65.3298376 41.9227239,62.5609836 43.6305011,60.8532064 C45.3382783,59.1454292 48.1071323,59.1454292 49.8149095,60.8532064 C51.5226867,62.5609836 51.5226867,65.3298376 49.8149095,67.0376148 C48.1071323,68.745392 45.3382783,68.745392 43.6305011,67.0376148 Z M63.2144609,68.0683495 C60.9374246,65.7913132 60.9374246,62.099508 63.2144609,59.8224717 C65.4914972,57.5454354 69.1833024,57.5454354 71.4603387,59.8224717 C73.737375,62.099508 73.737375,65.7913132 71.4603387,68.0683495 C69.1833024,70.3453858 65.4914972,70.3453858 63.2144609,68.0683495 Z M63.2144609,47.453655 C60.9374246,45.1766187 60.9374246,41.4848135 63.2144609,39.2077772 C65.4914972,36.9307409 69.1833024,36.9307409 71.4603387,39.2077772 C73.737375,41.4848135 73.737375,45.1766187 71.4603387,47.453655 C69.1833024,49.7306913 65.4914972,49.7306913 63.2144609,47.453655 Z M52.9071136,57.7610023 C50.6300774,55.483966 50.6300774,51.7921607 52.9071136,49.5151245 C55.1841499,47.2380882 58.8759552,47.2380882 61.1529914,49.5151245 C63.4300277,51.7921607 63.4300277,55.483966 61.1529914,57.7610023 C58.8759552,60.0380385 55.1841499,60.0380385 52.9071136,57.7610023 Z" id="Combined-Shape" fill="#000000" fill-rule="nonzero"></path>
            </g>
        </g>
    </g>
</svg>