<svg xmlns="http://www.w3.org/2000/svg" viewBox="0 0 116.71 36.75"><defs><style>.cls-1{fill:#222;}.cls-2{fill:#22a079;}.cls-3{fill:#cfbfa3;}.cls-4{fill:#b9a798;}.cls-5{fill:#1b8061;}</style></defs><title>资源 1</title><g id="图层_2" data-name="图层 2"><g id="图层_1-2" data-name="图层 1"><path class="cls-1" d="M52.43,13.37a10.2,10.2,0,0,1,2.36.27,11.93,11.93,0,0,1,2.49.93v2.57a11.75,11.75,0,0,0-2.42-1.08,8,8,0,0,0-2.31-.33,5.89,5.89,0,0,0-2.72.62,4.57,4.57,0,0,0-1.89,1.76,5.11,5.11,0,0,0,0,5.06,4.49,4.49,0,0,0,1.88,1.74,6,6,0,0,0,2.73.61,7.35,7.35,0,0,0,2.22-.33A16.16,16.16,0,0,0,57.45,24v2.57a12.35,12.35,0,0,1-2.53,1,10.65,10.65,0,0,1-2.69.3,8.74,8.74,0,0,1-4-.89,6.69,6.69,0,0,1-2.77-2.57,7,7,0,0,1-1-3.67,7.22,7.22,0,0,1,1-3.84,7,7,0,0,1,2.86-2.62A8.93,8.93,0,0,1,52.43,13.37Z"/><path class="cls-1" d="M63.91,18.06a5.8,5.8,0,0,1,2.68.62,4.49,4.49,0,0,1,1.86,1.73,4.86,4.86,0,0,1,.66,2.52,5.08,5.08,0,0,1-.63,2.57,4.44,4.44,0,0,1-1.86,1.74,5.8,5.8,0,0,1-2.71.64,5.73,5.73,0,0,1-2.7-.64,4.46,4.46,0,0,1-1.85-1.74,5.08,5.08,0,0,1-.63-2.57,4.82,4.82,0,0,1,.67-2.54,4.55,4.55,0,0,1,1.86-1.72A5.73,5.73,0,0,1,63.91,18.06Zm-2.57,4.87A3.46,3.46,0,0,0,62,25.2a2.28,2.28,0,0,0,1.86.85,2.4,2.4,0,0,0,1.91-.81,3.45,3.45,0,0,0,.7-2.32,3.22,3.22,0,0,0-.7-2.22,2.44,2.44,0,0,0-1.91-.79,2.31,2.31,0,0,0-1.84.83A3.27,3.27,0,0,0,61.33,22.93Z"/><path class="cls-1" d="M71.92,13.87a1.42,1.42,0,0,1,1.41,1.41,1.39,1.39,0,0,1-.41,1,1.36,1.36,0,0,1-2,0,1.37,1.37,0,0,1-.42-1,1.33,1.33,0,0,1,.43-1A1.37,1.37,0,0,1,71.92,13.87Zm1.25,4.38v9.46H70.67V18.25Z"/><path class="cls-1" d="M80.7,18.06a3.12,3.12,0,0,1,2.43,1A3.76,3.76,0,0,1,84,21.69v6H81.55V21.94a2.23,2.23,0,0,0-.44-1.46,1.47,1.47,0,0,0-1.2-.54,1.91,1.91,0,0,0-1.08.34,5.1,5.1,0,0,0-1.11,1.13v6.29H75.22V18.25h2.49v1.33a4.44,4.44,0,0,1,1.41-1.16A3.58,3.58,0,0,1,80.7,18.06Z"/><path class="cls-1" d="M88.41,13.56v6h.06a3.61,3.61,0,0,1,2.91-1.51,3.16,3.16,0,0,1,2.43,1,3.66,3.66,0,0,1,.92,2.59v6.06H92.25V22.12a2.35,2.35,0,0,0-.45-1.51A1.49,1.49,0,0,0,90.57,20a1.94,1.94,0,0,0-1.07.32,4.79,4.79,0,0,0-1.09,1.07v6.26H85.92V13.56Z"/><path class="cls-1" d="M99,18.25V24.1a2,2,0,0,0,.46,1.4,1.61,1.61,0,0,0,1.22.48,2.14,2.14,0,0,0,1.21-.38,2.78,2.78,0,0,0,.93-1.08V18.25h2.49v9.46h-2.49V26.42a3.94,3.94,0,0,1-2.92,1.47,3.21,3.21,0,0,1-2.45-1,3.63,3.63,0,0,1-.93-2.59V18.25Z"/><path class="cls-1" d="M109.8,13.56v5.3a4.19,4.19,0,0,1,2.5-.79,4.31,4.31,0,0,1,2.26.61,4.15,4.15,0,0,1,1.58,1.72,5.4,5.4,0,0,1,.56,2.48,4.87,4.87,0,0,1-1.39,3.67,5.23,5.23,0,0,1-3.8,1.34,11.47,11.47,0,0,1-4.21-.8V13.56Zm0,12.18a5.76,5.76,0,0,0,1.86.27,2.21,2.21,0,0,0,1.82-.84,3.59,3.59,0,0,0,.67-2.31,3.18,3.18,0,0,0-.68-2.13,2.24,2.24,0,0,0-1.79-.8,2.33,2.33,0,0,0-1,.19,4.19,4.19,0,0,0-.93.6Z"/><path class="cls-2" d="M54.65,25.23v2.41l.26-.06a12.35,12.35,0,0,0,2.53-1V24a16.16,16.16,0,0,1-2.67,1.21Z"/><path class="cls-3" d="M23.21,16.12a11.06,11.06,0,0,0,9.47,7.05,10.05,10.05,0,0,0,4.1-.13.43.43,0,0,1,.41.52,11.73,11.73,0,0,1-1.43,4.11c-1.83,3.25-5.85,7.55-14.93,9.07A16.31,16.31,0,0,0,19,36.39S8,26.79,23.21,16.12Z"/><path class="cls-4" d="M20.83,36.74S12.9,25.4,25.35,19.59l-1.55-2S7.68,25.81,20.83,36.74Z"/><path class="cls-1" d="M37.17,23.57a12.66,12.66,0,0,1-1.54,4.3l-2.3-4.63a8.85,8.85,0,0,0,3.2-.16C37,23,37.25,23.13,37.17,23.57Z"/><circle class="cls-1" cx="23.94" cy="25.13" r="1.61"/><path class="cls-2" d="M24.25,2.7,25.58.51A30.49,30.49,0,0,0,19,2.37a16.44,16.44,0,0,0-1.65.24L20.06,0a13.79,13.79,0,0,0-6.87,4.05c-.27.14-.54.28-.8.44L14.48.63a14.07,14.07,0,0,0-6.32,7l1.29-4.5S6.2,5.6,5.62,11.69l-.22.45L5,6.68A13.45,13.45,0,0,0,3.91,17.47h0L1.69,12s-1.38,4.35,2,10L0,17.71S.35,25,4.51,28.91a2.47,2.47,0,0,1,2.41.61,16.71,16.71,0,0,0,13,7.2h.65s-7.72-6.66-.28-16.18c7.44-8.75,17-2.67,16.94-3.45A17.08,17.08,0,0,0,24.25,2.7Z"/><path class="cls-5" d="M17.36,31.11s-8.52,3-16.43-8.53a20.82,20.82,0,0,0,4.45,8.15c2.89,3.32,8.63,6.21,15.45,6a7.78,7.78,0,0,1-2-2.34A18.38,18.38,0,0,1,17.36,31.11Z"/></g></g></svg>