<?xml version="1.0" encoding="UTF-8"?>
<svg width="186px" height="34px" viewBox="0 0 186 34" version="1.1" xmlns="http://www.w3.org/2000/svg" xmlns:xlink="http://www.w3.org/1999/xlink">
    <title>HyperPay-Logo</title>
    <g id="HECO" stroke="none" stroke-width="1" fill="none" fill-rule="evenodd">
        <g id="1-1首页" transform="translate(-1039.000000, -1465.000000)" fill-rule="nonzero">
            <g id="合作伙伴" transform="translate(480.000000, 1292.000000)">
                <g id="编组-6" transform="translate(56.000000, 84.000000)">
                    <g id="HyperPay-Logo" transform="translate(503.347727, 89.000000)">
                        <g id="编组" transform="translate(0.500000, 0.000000)">
                            <ellipse id="椭圆形" fill="#2386E3" cx="17.0573494" cy="17.0647619" rx="16.9221687" ry="16.7207143"></ellipse>
                            <path d="M9.03662651,10.1919048 L7.04578313,12.187381 L9.65927711,14.1342857 L15.4474699,14.1383333 L13.6819277,16.3888095 L14.5462651,18.3357143 L19.1833735,18.3519048 C19.1833735,18.3519048 19.1956627,17.9066667 19.4701205,16.1338095 C19.9084337,13.3085714 24.82,13.142619 24.7749398,16.3119048 C24.7380723,18.6433333 22.9233735,18.922619 21.7477108,18.9590476 C20.5720482,18.9954762 6.33301205,18.9509524 6.33301205,18.9509524 L4.14963855,20.8735714 L6.02578313,22.8204762 L13.206747,22.8204762 L11.1298795,25.5890476 L12.6946988,27.5359524 L17.2293976,27.5359524 L18.4746988,22.7111905 C18.4746988,22.7111905 21.2520482,22.6545238 22.3949398,22.6545238 C24.4226506,22.6545238 29.8012048,21.3471429 29.8012048,15.7897619 C29.8012048,10.7585714 24.246506,10.232381 22.1819277,10.232381 C20.1091566,10.2242857 9.03662651,10.1919048 9.03662651,10.1919048 Z" id="路径" fill="#2665A3"></path>
                            <path d="M8.17228916,8.245 L7.04987952,12.187381 L14.5831325,12.1914286 L13.6819277,16.3888095 L18.3190361,16.405 C18.3190361,16.405 18.3313253,15.9597619 18.6057831,14.1869048 C19.0440964,11.3616667 23.9556627,11.1957143 23.9106024,14.365 C23.8737349,16.6964286 22.0590361,16.9757143 20.8833735,17.0121429 C19.7077108,17.0485714 5.4686747,17.0040476 5.4686747,17.0040476 L4.14963855,20.8735714 L12.3383133,20.8735714 L11.1298795,25.5890476 L16.3650602,25.5890476 L17.6103614,20.7642857 C17.6103614,20.7642857 20.3877108,20.707619 21.5306024,20.707619 C23.5583133,20.707619 28.9368675,19.4002381 28.9368675,13.8428571 C28.9368675,8.81166667 23.3821687,8.28547619 21.3175904,8.28547619 C19.2407229,8.27738095 8.17228916,8.245 8.17228916,8.245 Z" id="路径" fill="#FFFFFF"></path>
                        </g>
                        <g id="编组" transform="translate(37.500000, 7.000000)">
                            <polygon id="路径" fill="#03121C" points="5.91221918 0.184516129 11.9170685 0.184516129 9.76241096 8.25709677 16.3995616 8.25709677 18.542137 0.184516129 24.3858904 0.184516129 18.7837808 21.3787097 13.290411 21.3787097 15.1752329 13.1635484 8.38906849 13.1635484 6.12969863 21.3787097 0.390657534 21.3787097"></polygon>
                            <path d="M24.3858904,5.18741935 L30.0121644,5.18741935 L30.2900548,14.7109677 L35.5458082,5.18741935 L41.2405479,5.18741935 L32.1386301,20.1416129 C32.1386301,20.1416129 29.1825205,25.7358065 24.7201644,25.9245161 C22.6621644,25.9245161 21.6915616,25.5470968 20.640411,24.7041935 C21.2445205,23.6935484 22.404411,21.3829032 22.404411,21.3829032 C22.404411,21.3829032 23.6166575,22.5025806 25.4370411,21.8148387 C26.5244384,21.3829032 26.1498904,19.6593548 26.1498904,19.6593548 L24.3858904,5.18741935 Z" id="路径" fill="#03121C"></path>
                            <path d="M129.939945,5.18741935 L135.566219,5.18741935 L135.84411,14.7109677 L141.099863,5.18741935 L146.794603,5.18741935 L137.692685,20.1416129 C137.692685,20.1416129 134.736575,25.7358065 130.274219,25.9245161 C128.216219,25.9245161 127.245616,25.5470968 126.194466,24.7041935 C126.798575,23.6935484 127.958466,21.3829032 127.958466,21.3829032 C127.958466,21.3829032 129.170712,22.5025806 130.991096,21.8148387 C132.078493,21.3829032 131.703945,19.6593548 131.703945,19.6593548 L129.939945,5.18741935 Z" id="路径" fill="#2386E3"></path>
                            <path d="M53.8704658,5.18741935 C51.0432329,4.09290323 48.6147123,5.45580645 47.3501096,7.16258065 C47.6199452,5.95064516 47.688411,5.18741935 47.688411,5.18741935 L42.7588767,5.18741935 L37.3460548,25.9203226 L42.7588767,25.9203226 L44.5953699,18.6654839 C44.5953699,18.6654839 46.0291233,21.1690323 48.5744384,21.3787097 C48.5744384,21.3787097 53.2180274,22.0077419 55.6022466,17.5919355 C57.9904932,13.1803226 58.3932329,6.91096774 53.8704658,5.18741935 Z M51.4177808,14.4341935 C50.5760548,16.3925806 48.6388767,17.3948387 47.0923562,16.6735484 C45.5458356,15.9522581 44.9739452,13.78 45.8156712,11.8216129 C46.6573973,9.86322581 48.5945753,8.86096774 50.1410959,9.58225806 C51.6876164,10.3035484 52.2595068,12.4758065 51.4177808,14.4341935 Z" id="形状" fill="#03121C"></path>
                            <path d="M67.6844384,5.19580645 C61.8124932,4.95677419 58.2039452,9.89258065 58.2039452,14.7696774 C58.2039452,19.6467742 64.2893425,24.7503226 71.5064384,19.1980645 C70.2136438,17.3487097 69.0819452,16.1703226 69.0819452,16.1703226 C67.1447671,18.1874194 62.5132603,18.0196774 62.7790685,14.43 L73.1173973,14.43 C73.1254521,14.4341935 76.4641644,5.60258065 67.6844384,5.19580645 Z M69.5974521,12.1277419 C66.677589,12.1277419 63.2341644,12.1277419 63.2341644,12.1277419 C63.8221644,7.77483871 70.1612877,7.12064516 69.5974521,12.1277419 Z" id="形状" fill="#03121C"></path>
                            <path d="M77.1890959,5.18741935 L73.2704384,21.0012903 L78.3610685,21.0012903 C78.3610685,21.0012903 79.4524932,13.7254839 81.6313151,12.1277419 C83.8141644,10.53 85.4694247,10.6558065 86.2749041,10.7396774 C86.6373699,8.68064516 87.6885205,4.87290323 87.6885205,4.87290323 C86.2749041,4.60032258 83.769863,5.18741935 81.711863,7.96354839 C82.1146027,6.53354839 82.4408219,5.18741935 82.4408219,5.18741935 L77.1890959,5.18741935 Z" id="路径" fill="#03121C"></path>
                            <path d="M90.9346027,0.268387097 L89.6579178,4.98193548 L98.2040548,4.98612903 L97.1810959,10.0058065 L102.440877,10.0225806 C102.440877,10.0225806 102.452959,9.49419355 102.767096,7.37225806 C103.262466,3.99225806 108.840411,3.79935484 108.784027,7.58193548 C108.743753,10.3664516 106.681726,10.7019355 105.348658,10.743871 C104.015589,10.7858065 87.8576712,10.7354839 87.8576712,10.7354839 L86.3635068,15.3609677 L95.6547123,15.3609677 L94.2813699,20.9970968 L100.217753,20.9970968 L101.627342,15.2267742 C101.627342,15.2267742 104.780795,15.1596774 106.073589,15.1596774 C108.37726,15.1596774 114.47474,13.5954839 114.47474,6.94870968 C114.47474,0.93516129 108.171863,0.301935484 105.831945,0.301935484 C103.492027,0.301935484 90.9346027,0.268387097 90.9346027,0.268387097 Z" id="路径" fill="#2386E3"></path>
                            <path d="M124.861397,5.60677419 C121.325342,5.11612903 119.114301,5.33419355 115.892384,5.98419355 L116.335397,9.64516129 C116.335397,9.64516129 120.399041,8.93225806 122.28789,9.4816129 C123.701507,9.89258065 123.081288,11.96 123.081288,11.96 C123.081288,11.96 119.851315,10.6348387 116.254849,11.96 C113.471918,12.9874194 110.680932,17.0509677 113.66926,20.623871 C115.163425,22.053871 117.914137,22.1670968 120.697068,19.9109677 C120.616521,20.4980645 120.374877,21.5087097 120.374877,21.5087097 L125.666877,21.5087097 C125.666877,21.5087097 127.970548,13.0964516 128.212192,11.96 C128.453836,10.8235484 129.710384,6.28193548 124.861397,5.60677419 Z M121.522685,16.9503226 C120.660822,18.0825806 119.488849,18.2712903 118.844466,17.8896774 C118.014822,17.3990323 117.644301,16.1116129 118.361178,15.0716129 C118.96126,14.1951613 121.256877,14.1364516 122.239562,14.2287097 C122.759096,14.3712903 122.356356,15.8558065 121.522685,16.9503226 Z" id="形状" fill="#2386E3"></path>
                        </g>
                    </g>
                </g>
            </g>
        </g>
    </g>
</svg>