<svg width="800" height="256" viewBox="0 0 800 256" fill="none" xmlns="http://www.w3.org/2000/svg">
<path d="M146.434 21.1638C146.434 19.295 147.431 17.5788 149.025 16.702L178.312 0.597495C181.563 -1.19024 185.483 1.2488 185.483 5.05934V213.817C185.483 215.694 184.478 217.416 182.873 218.289L153.587 234.227C150.337 235.996 146.434 233.556 146.434 229.755V21.1638Z" fill="#2B8DFF"/>
<path opacity="0.5" d="M0 229.5C0 233.304 3.90809 235.744 7.15861 233.969L36.4448 217.976C38.0462 217.101 39.0483 215.381 39.0483 213.507V64.5319C39.0483 60.7285 35.1415 58.2888 31.891 60.0626L2.60481 76.0435C1.00275 76.9177 0 78.6382 0 80.5129V229.5Z" fill="#2B8DFF"/>
<path d="M134.649 106.206H100.865C99.5702 106.206 98.3287 106.738 97.4133 107.686L44.9422 161.999C43.036 163.972 43.036 167.171 44.9422 169.144L97.4133 223.457C98.3287 224.405 99.5702 224.937 100.865 224.937H134.649C138.998 224.937 141.176 219.495 138.101 216.312L92.5323 169.144C90.6261 167.171 90.6262 163.972 92.5323 161.999L138.101 114.831C141.176 111.648 138.998 106.206 134.649 106.206Z" fill="#2B8DFF"/>
<path d="M232.384 222.879C231.839 222.879 231.348 222.715 230.912 222.388C230.585 221.95 230.422 221.458 230.422 220.912V110.075C230.422 109.529 230.585 109.092 230.912 108.764C231.348 108.327 231.839 108.108 232.384 108.108H247.428C247.973 108.108 248.41 108.327 248.737 108.764C249.173 109.092 249.391 109.529 249.391 110.075V157.296C249.391 157.624 249.5 157.842 249.718 157.952C249.936 158.061 250.154 157.952 250.372 157.624L283.894 109.42C284.44 108.545 285.203 108.108 286.184 108.108H302.7C303.463 108.108 303.954 108.381 304.172 108.928C304.499 109.365 304.444 109.912 304.008 110.567L273.102 156.64C272.993 156.968 272.993 157.35 273.102 157.788L306.297 220.584C306.515 221.021 306.624 221.349 306.624 221.568C306.624 222.442 306.079 222.879 304.989 222.879H288.31C287.219 222.879 286.402 222.388 285.857 221.404L260.02 172.544C259.911 172.216 259.747 172.052 259.529 172.052C259.311 172.052 259.093 172.161 258.875 172.38L249.718 185.005C249.5 185.442 249.391 185.77 249.391 185.989V220.912C249.391 221.458 249.173 221.95 248.737 222.388C248.41 222.715 247.973 222.879 247.428 222.879H232.384Z" fill="#272C33"/>
<path d="M328.836 127.619C325.456 127.619 322.676 126.526 320.496 124.34C318.425 122.154 317.389 119.367 317.389 115.978C317.389 112.59 318.425 109.802 320.496 107.616C322.676 105.43 325.456 104.337 328.836 104.337C332.324 104.337 335.104 105.43 337.176 107.616C339.356 109.693 340.446 112.48 340.446 115.978C340.446 119.367 339.356 122.154 337.176 124.34C334.995 126.526 332.215 127.619 328.836 127.619ZM321.314 222.879C320.769 222.879 320.278 222.715 319.842 222.388C319.515 221.95 319.351 221.458 319.351 220.912V140.9C319.351 140.353 319.515 139.916 319.842 139.588C320.278 139.151 320.769 138.932 321.314 138.932H336.358C336.903 138.932 337.339 139.151 337.666 139.588C338.102 139.916 338.32 140.353 338.32 140.9V220.912C338.32 221.458 338.102 221.95 337.666 222.388C337.339 222.715 336.903 222.879 336.358 222.879H321.314Z" fill="#272C33"/>
<path d="M394.957 137.785C402.916 137.785 409.13 140.299 413.599 145.327C418.069 150.355 420.304 157.296 420.304 166.15V220.912C420.304 221.458 420.086 221.95 419.65 222.388C419.323 222.715 418.887 222.879 418.341 222.879H403.297C402.752 222.879 402.262 222.715 401.825 222.388C401.498 221.95 401.335 221.458 401.335 220.912V168.773C401.335 164.291 400.19 160.739 397.901 158.116C395.72 155.492 392.723 154.181 388.907 154.181C384.982 154.181 381.821 155.547 379.422 158.28C377.133 160.903 375.988 164.455 375.988 168.937V220.912C375.988 221.458 375.77 221.95 375.334 222.388C375.007 222.715 374.571 222.879 374.026 222.879H358.982C358.437 222.879 357.946 222.715 357.51 222.388C357.183 221.95 357.02 221.458 357.02 220.912V141.064C357.02 140.517 357.183 140.08 357.51 139.752C357.946 139.315 358.437 139.096 358.982 139.096H374.026C374.571 139.096 375.007 139.315 375.334 139.752C375.77 140.08 375.988 140.517 375.988 141.064V145.327C375.988 145.655 376.097 145.873 376.316 145.983C376.534 146.092 376.752 145.983 376.97 145.655C381.33 140.408 387.326 137.785 394.957 137.785Z" fill="#272C33"/>
<path d="M481.66 141.064C481.66 140.517 481.824 140.08 482.151 139.752C482.587 139.315 483.077 139.096 483.622 139.096H498.667C499.212 139.096 499.648 139.315 499.975 139.752C500.411 140.08 500.629 140.517 500.629 141.064V218.453C500.629 231.132 497.195 240.532 490.327 246.654C483.459 252.884 473.538 255.999 460.565 255.999C459.039 255.999 456.641 255.89 453.37 255.671C452.062 255.562 451.408 254.852 451.408 253.54L451.899 240.423C451.899 239.111 452.607 238.51 454.024 238.62C455.115 238.729 456.75 238.783 458.93 238.783C467.106 238.783 472.939 237.089 476.427 233.701C479.916 230.312 481.66 224.847 481.66 217.305V215.829C481.66 215.501 481.551 215.283 481.333 215.173C481.115 215.064 480.897 215.173 480.679 215.501C476.536 220.311 470.813 222.715 463.509 222.715C456.423 222.715 450.427 220.639 445.521 216.485C440.615 212.222 437.563 206.21 436.364 198.45C435.71 195.17 435.383 189.268 435.383 180.742C435.383 171.67 435.819 165.439 436.691 162.051C437.781 154.618 440.615 148.715 445.194 144.343C449.773 139.971 455.66 137.785 462.855 137.785C470.377 137.785 476.318 140.244 480.679 145.163C480.897 145.381 481.115 145.491 481.333 145.491C481.551 145.381 481.66 145.163 481.66 144.835V141.064ZM481.17 195.006C481.497 190.853 481.66 186.098 481.66 180.742C481.66 174.511 481.442 169.593 481.006 165.986C480.57 162.488 479.207 159.646 476.918 157.46C474.629 155.274 471.74 154.181 468.251 154.181C464.763 154.181 461.874 155.274 459.584 157.46C457.295 159.646 455.878 162.488 455.333 165.986C454.679 170.03 454.351 174.949 454.351 180.742C454.351 186.098 454.624 190.853 455.169 195.006C455.714 198.504 457.186 201.346 459.584 203.532C461.983 205.718 464.926 206.811 468.415 206.811C472.012 206.811 474.901 205.718 477.081 203.532C479.371 201.346 480.734 198.504 481.17 195.006Z" fill="#272C33"/>
<path d="M521.108 222.879C520.563 222.879 520.072 222.715 519.636 222.388C519.309 221.95 519.146 221.458 519.146 220.912V110.075C519.146 109.529 519.309 109.092 519.636 108.764C520.072 108.327 520.563 108.108 521.108 108.108H554.958C565.532 108.108 573.981 111.059 580.304 116.962C586.736 122.864 589.952 130.734 589.952 140.572V190.416C589.952 200.253 586.736 208.123 580.304 214.026C573.981 219.928 565.532 222.879 554.958 222.879H521.108ZM538.115 205.664C538.115 206.21 538.387 206.484 538.932 206.484L555.121 206.32C559.809 206.32 563.57 204.735 566.405 201.565C569.239 198.286 570.765 193.859 570.983 188.284V142.703C570.983 137.129 569.511 132.702 566.568 129.423C563.734 126.143 559.918 124.504 555.121 124.504H538.932C538.387 124.504 538.115 124.777 538.115 125.324V205.664Z" fill="#272C33"/>
<path d="M636.388 137.785C642.602 137.785 648.107 138.987 652.904 141.392C657.701 143.687 661.407 146.912 664.024 151.065C666.749 155.219 668.112 159.974 668.112 165.33V220.912C668.112 221.458 667.894 221.95 667.458 222.388C667.131 222.715 666.695 222.879 666.15 222.879H651.105C650.56 222.879 650.07 222.715 649.634 222.388C649.307 221.95 649.143 221.458 649.143 220.912V216.813C649.143 216.485 649.034 216.266 648.816 216.157C648.598 216.048 648.38 216.102 648.162 216.321C643.583 221.568 636.988 224.191 628.375 224.191C621.18 224.191 615.075 222.278 610.061 218.453C605.046 214.518 602.538 208.178 602.538 199.433C602.538 190.252 605.427 183.42 611.205 178.938C617.092 174.457 625.159 172.216 635.407 172.216H648.325C648.871 172.216 649.143 171.943 649.143 171.396V167.297C649.143 163.253 647.998 160.083 645.709 157.788C643.529 155.383 640.476 154.181 636.552 154.181C633.39 154.181 630.774 154.946 628.702 156.476C626.74 157.897 625.486 159.864 624.941 162.378C624.614 163.581 623.851 164.182 622.652 164.182L606.79 163.198C606.245 163.198 605.754 163.034 605.318 162.706C604.991 162.269 604.882 161.832 604.991 161.395C605.645 154.399 608.861 148.715 614.639 144.343C620.526 139.971 627.776 137.785 636.388 137.785ZM633.281 208.779C637.533 208.779 641.239 207.577 644.401 205.172C647.562 202.658 649.143 199.379 649.143 195.334V186.808C649.143 186.262 648.871 185.989 648.325 185.989H637.369C632.573 185.989 628.757 187.027 625.923 189.104C623.197 191.181 621.834 194.187 621.834 198.122C621.834 201.619 622.87 204.297 624.941 206.156C627.122 207.905 629.902 208.779 633.281 208.779Z" fill="#272C33"/>
<path d="M723.323 151.557C723.323 152.104 723.105 152.596 722.669 153.033C722.342 153.361 721.906 153.525 721.361 153.525H708.116C707.571 153.525 707.298 153.798 707.298 154.344V195.498C707.298 199.543 708.061 202.439 709.587 204.188C711.223 205.828 713.73 206.593 717.11 206.484H720.053C720.598 206.484 721.034 206.702 721.361 207.139C721.797 207.467 722.015 207.905 722.015 208.451V220.912C722.015 222.114 721.361 222.825 720.053 223.043H713.185C705.118 223.043 699.067 221.622 695.034 218.78C691 215.939 688.983 210.583 688.983 202.712V154.344C688.983 153.798 688.711 153.525 688.166 153.525H680.643C680.098 153.525 679.608 153.361 679.172 153.033C678.845 152.596 678.681 152.104 678.681 151.557V141.064C678.681 140.517 678.845 140.08 679.172 139.752C679.608 139.315 680.098 139.096 680.643 139.096H688.166C688.711 139.096 688.983 138.823 688.983 138.276V119.585C688.983 119.039 689.147 118.601 689.474 118.273C689.91 117.836 690.4 117.618 690.945 117.618H705.336C705.881 117.618 706.317 117.836 706.644 118.273C707.08 118.601 707.298 119.039 707.298 119.585V138.276C707.298 138.823 707.571 139.096 708.116 139.096H721.361C721.906 139.096 722.342 139.315 722.669 139.752C723.105 140.08 723.323 140.517 723.323 141.064V151.557Z" fill="#272C33"/>
<path d="M767.496 137.785C773.71 137.785 779.215 138.987 784.012 141.392C788.808 143.687 792.515 146.912 795.131 151.065C797.857 155.219 799.22 159.974 799.22 165.33V220.912C799.22 221.458 799.002 221.95 798.565 222.388C798.238 222.715 797.802 222.879 797.257 222.879H782.213C781.668 222.879 781.177 222.715 780.741 222.388C780.414 221.95 780.251 221.458 780.251 220.912V216.813C780.251 216.485 780.142 216.266 779.924 216.157C779.706 216.048 779.488 216.102 779.269 216.321C774.691 221.568 768.095 224.191 759.483 224.191C752.288 224.191 746.183 222.278 741.168 218.453C736.153 214.518 733.646 208.178 733.646 199.433C733.646 190.252 736.535 183.42 742.313 178.938C748.2 174.457 756.267 172.216 766.515 172.216H779.433C779.978 172.216 780.251 171.943 780.251 171.396V167.297C780.251 163.253 779.106 160.083 776.817 157.788C774.636 155.383 771.584 154.181 767.659 154.181C764.498 154.181 761.881 154.946 759.81 156.476C757.848 157.897 756.594 159.864 756.049 162.378C755.722 163.581 754.959 164.182 753.76 164.182L737.898 163.198C737.353 163.198 736.862 163.034 736.426 162.706C736.099 162.269 735.99 161.832 736.099 161.395C736.753 154.399 739.969 148.715 745.747 144.343C751.634 139.971 758.883 137.785 767.496 137.785ZM764.389 208.779C768.64 208.779 772.347 207.577 775.508 205.172C778.67 202.658 780.251 199.379 780.251 195.334V186.808C780.251 186.262 779.978 185.989 779.433 185.989H768.477C763.68 185.989 759.865 187.027 757.03 189.104C754.305 191.181 752.942 194.187 752.942 198.122C752.942 201.619 753.978 204.297 756.049 206.156C758.229 207.905 761.009 208.779 764.389 208.779Z" fill="#272C33"/>
</svg>
