<?xml version="1.0" encoding="utf-8"?>
<!-- Generator: Adobe Illustrator 23.1.1, SVG Export Plug-In . SVG Version: 6.00 Build 0)  -->
<svg version="1.1" id="图层_1" xmlns="http://www.w3.org/2000/svg" xmlns:xlink="http://www.w3.org/1999/xlink" x="0px" y="0px"
	 viewBox="0 0 581 141" style="enable-background:new 0 0 581 141;" xml:space="preserve">
<style type="text/css">
	.st0{fill:#231815;}
	.st1{opacity:0.4;fill:#1853EF;}
	.st2{fill:#1853EF;}
	.st3{clip-path:url(#SVGID_2_);}
	.st4{fill:none;stroke:#00A6FF;stroke-miterlimit:10;}
	.st5{clip-path:url(#SVGID_2_);fill:none;stroke:#00A6FF;stroke-width:2;stroke-miterlimit:10;}
	.st6{fill:none;stroke:#1853EF;stroke-width:0.5;stroke-miterlimit:10;}
	.st7{fill:none;stroke:#C8C9CA;stroke-width:2;stroke-miterlimit:10;}
	.st8{fill:none;stroke:#C8C9CA;stroke-miterlimit:10;}
	.st9{fill:#FFFFFF;}
	.st10{fill:none;stroke:#1853EF;stroke-width:16;stroke-linecap:round;stroke-linejoin:round;stroke-miterlimit:10;}
	.st11{fill:none;stroke:#C8C9CA;stroke-width:10;stroke-linecap:round;stroke-linejoin:round;stroke-miterlimit:10;}
	.st12{fill:none;stroke:#C8C9CA;stroke-width:0.5;stroke-miterlimit:10;}
	.st13{fill:#595757;}
	.st14{fill:none;stroke:#3E3A39;stroke-miterlimit:10;}
	.st15{fill:#3E3A39;}
	.st16{fill:#FFFFFF;stroke:#3E3A39;stroke-miterlimit:10;}
	.st17{clip-path:url(#SVGID_4_);}
	.st18{clip-path:url(#SVGID_4_);fill:none;stroke:#00A6FF;stroke-width:2;stroke-miterlimit:10;}
	.st19{fill:none;stroke:#1853EF;stroke-miterlimit:10;}
	.st20{fill:none;stroke:#009FE8;stroke-width:2;stroke-miterlimit:10;}
	.st21{fill:none;stroke:#009FE8;stroke-miterlimit:10;}
</style>
<g>
	<g>
		<polygon class="st2" points="195.35,48.44 183.86,84.45 172.94,48.44 160.5,48.44 176.9,99.08 189.83,99.08 199.6,66.41 
			209.73,99.08 222.74,99.08 239,48.44 226.69,48.44 215.78,84.29 204.15,48.44 		"/>
		<path class="st2" d="M267.64,57.93c-7.66,0-11.55,5.88-11.59,5.94l-1.21,1.88l0-17.31h-11.3v50.64h11.43V75.93
			c0-4.33,3.72-7.98,8.12-7.98c6.43,0,7.17,4.21,7.17,7.37v23.76h11.71V71.11C281.97,63.72,275.67,57.93,267.64,57.93z"/>
		<path class="st2" d="M287.83,79.11c0,12.74,7.41,20.98,18.88,20.98c7.55,0,11.95-4.82,11.99-4.87l1.15-1.29v5.14h11.37V58.75
			h-11.16v5.1l-1.1-1c-3.42-3.11-6.41-4.92-11.56-4.92C296.61,57.93,287.83,67.43,287.83,79.11z M320.46,79.25
			c0,6.18-4.72,10.83-10.97,10.83c-5.88,0-10.16-4.7-10.16-11.17c0-6.16,4.44-10.63,10.56-10.63S320.46,72.89,320.46,79.25z"/>
		<polygon class="st2" points="352.03,48.44 340.66,48.44 340.66,58.75 336.53,58.75 336.53,68.89 340.66,68.89 340.66,99.08 
			352.03,99.08 352.03,68.96 358.74,68.96 358.74,58.75 352.03,58.75 		"/>
		<path class="st2" d="M371.55,69.89c0-1.95,1.53-3.17,3.98-3.17c3.09,0,4.78,2.05,5.44,3.07l8.4-3.7
			c-2.51-5.13-7.23-8.17-12.75-8.17c-9,0-15.28,5.31-15.28,12.91c0,8.72,6.85,10.91,12.36,12.68c3.37,1.08,6.29,2.02,6.29,4.41
			c0,2.32-2.65,3.57-5.13,3.57c-3.21,0-5.28-2.38-6.06-3.47l-8.56,4.31c3.04,5.28,7.66,7.74,14.49,7.74
			c7.72,0,16.03-4.12,16.03-13.18c0-8.58-7.18-10.92-12.95-12.8C374.3,72.97,371.55,72.07,371.55,69.89z"/>
		<path class="st2" d="M360.06,69.92c-0.01,0.12-0.01,0.24-0.02,0.36h0.02V69.92z"/>
		<path class="st2" d="M394.58,74.23c0,14.94,11.41,26.2,26.54,26.2c5.12,0,8.37-1.42,12.43-3.23V85.21
			c-3.17,2.01-6.8,3.72-11.55,3.72c-8.71,0-15.04-6.12-15.04-14.56c0-9.67,5.64-15.92,14.36-15.92c5.77,0,9.25,1.51,12.36,3.84
			V49.94c-4.32-2.26-7.55-2.99-13.04-2.99C405.55,46.94,394.58,58.42,394.58,74.23z"/>
		<path class="st2" d="M460.22,57.93c-12.62,0-22.13,9.11-22.13,21.18c0,11.59,10.01,21.39,21.86,21.39
			c12.99,0,22.06-8.88,22.06-21.59C482.02,66.95,472.65,57.93,460.22,57.93z M460.09,89.88c-6.1,0-10.7-4.54-10.7-10.56
			c0-6.28,4.53-10.83,10.76-10.83c6.06,0,10.63,4.39,10.63,10.22C470.79,85.6,466.69,89.88,460.09,89.88z"/>
		<path class="st2" d="M493.47,40.5c-3.83,0-6.94,3.14-6.94,7.01c0,3.89,2.99,6.94,6.8,6.94c3.94,0,7.14-3.17,7.14-7.07
			C500.48,43.58,497.33,40.5,493.47,40.5z"/>
		<rect x="487.75" y="58.75" class="st2" width="11.3" height="40.33"/>
		<path class="st2" d="M531.31,57.93c-7.69,0-11.55,5.88-11.59,5.94l-1.21,1.89v-7.01h-11.3v40.33h11.43V75.93
			c0-4.33,3.72-7.98,8.12-7.98c6.43,0,7.17,4.21,7.17,7.37v23.76h11.71V71.11C545.64,63.72,539.34,57.93,531.31,57.93z"/>
	</g>
	<g>
		<path class="st2" d="M112.58,101.39c-7.81,7.23-17.97,11.22-28.61,11.22c-23.22,0-42.11-18.89-42.11-42.11
			s18.89-42.11,42.11-42.11c10.64,0,20.8,3.98,28.61,11.22c1.6,1.48,4.1,1.39,5.58-0.21c1.48-1.6,1.39-4.1-0.21-5.58
			c-9.27-8.59-21.34-13.32-33.98-13.32c-27.57,0-50,22.43-50,50s22.43,50,50,50c12.64,0,24.71-4.73,33.98-13.32
			c1.6-1.48,1.69-3.98,0.21-5.58C116.68,100,114.18,99.91,112.58,101.39z"/>
		<path class="st2" d="M139.39,50.77c-1.54-1.54-4.04-1.54-5.58,0l-22.06,22.06L98.73,59.8c-1.54-1.54-4.04-1.54-5.58,0L71.08,81.86
			L58.06,68.84c-1.54-1.54-4.04-1.54-5.58,0c-1.54,1.54-1.54,4.04,0,5.58l15.82,15.82c0.77,0.77,1.78,1.16,2.79,1.16
			c1.01,0,2.02-0.39,2.79-1.16l22.06-22.06l13.03,13.03c0.77,0.77,1.78,1.16,2.79,1.16c1.01,0,2.02-0.39,2.79-1.16l24.85-24.85
			C140.94,54.81,140.94,52.31,139.39,50.77z"/>
	</g>
</g>
</svg>
